<svg version="1.1" id="logo-shapes_1_" xmlns="http://www.w3.org/2000/svg" xmlns:xlink="http://www.w3.org/1999/xlink" x="0px"
	 y="0px" viewBox="-893 457.8 131.3 46.2" enable-background="new -893 457.8 131.3 46.2" xml:space="preserve">
<rect class="svg__ico" x="-876" y="457.8" fill="#2E80BF" width="12.2" height="38.9"/>
<rect class="svg__ico" x="-790.9" y="457.8" fill="#5BBA47" width="12.2" height="38.9"/>
<rect class="svg__ico" x="-841.9" y="457.8" fill="#975CA5" width="12.2" height="38.9"/>
<rect class="svg__ico" x="-824.9" y="465.1" fill="#F06CA8" width="12.2" height="38.9"/>
<rect class="svg__ico" x="-807.9" y="457.8" fill="#B370AE" width="12.2" height="38.9"/>
<path class="svg__ico" fill="#67C2DC" d="M-846.8,463.9c0,3.4-2.7,6.1-6.1,6.1c-3.4,0-6.1-2.7-6.1-6.1c0-3.4,2.7-6.1,6.1-6.1
	c0,0,0,0,0,0C-849.5,457.8-846.8,460.5-846.8,463.9z"/>
<path class="svg__ico" fill="#36539A" d="M-880.8,490.6c0,3.4-2.7,6.1-6.1,6.1c-3.4,0-6.1-2.7-6.1-6.1c0-3.4,2.7-6.1,6.1-6.1
	C-883.6,484.5-880.8,487.3-880.8,490.6L-880.8,490.6z"/>
<path class="svg__ico" fill="#B2D235" d="M-761.7,490.6c0,3.4-2.7,6.1-6.1,6.1c-3.4,0-6.1-2.7-6.1-6.1c0-3.4,2.7-6.1,6.1-6.1
	C-764.4,484.5-761.7,487.3-761.7,490.6z"/>
</svg>
