<svg version="1.1" class="ico-clutch" xmlns="http://www.w3.org/2000/svg" xmlns:xlink="http://www.w3.org/1999/xlink" x="0px" y="0px"
	 viewBox="-949 469.5 20.8 23.5" enable-background="new -949 469.5 20.8 23.5" xml:space="preserve">
<path class="svg__ico" fill="#FFFFFF" d="M-937.1,487.8c-3.6,0.1-6.6-2.7-6.7-6.2c0-0.1,0-0.2,0-0.3c-0.1-3.5,2.7-6.4,6.2-6.5c0.2,0,0.4,0,0.6,0
	c2,0,3.9,0.8,5.2,2.3l3.7-3.7c-2.3-2.5-5.5-3.9-8.9-3.9c-7.6,0-12,5.2-12,11.6c-0.1,6.4,4.9,11.7,11.3,11.8c0.2,0,0.4,0,0.6,0
	c3.4,0,6.7-1.4,8.9-3.9l-3.7-3.6C-933.2,487-935.1,487.8-937.1,487.8z"/>
<path class="svg__ico" fill="#FFFFFF" d="M-937.4,477.4c-2.1,0-3.9,1.7-3.9,3.9c0,0,0,0,0,0c0,2.1,1.7,3.9,3.9,3.9c2.1,0,3.9-1.7,3.9-3.9
	C-933.5,479.2-935.3,477.4-937.4,477.4C-937.4,477.4-937.4,477.4-937.4,477.4z"/>
</svg>
