<svg version="1.1" class="ico-github" xmlns="http://www.w3.org/2000/svg" xmlns:xlink="http://www.w3.org/1999/xlink" x="0px" y="0px"
	 viewBox="-946 469 25.9 25" enable-background="new -946 469 25.9 25" xml:space="preserve">
<path class="svg__ico" fill="#FFFFFF" d="M-933.2,469c-7.1,0-12.8,5.8-12.8,12.8c0,5.5,3.6,10.4,8.8,12.1c0.7,0.1,0.9-0.3,0.9-0.6v-2.2
	c-3.6,0.8-4.3-1.7-4.3-1.7c-0.2-0.8-0.7-1.5-1.4-1.9c-1.2-0.8,0.1-0.7,0.1-0.7c0.8,0.1,1.6,0.6,2,1.3c0.7,1.3,2.3,1.8,3.6,1.1
	c0,0,0.1,0,0.1,0c0-0.7,0.3-1.3,0.8-1.7c-2.8-0.3-5.8-1.4-5.8-6.3c0-1.3,0.4-2.5,1.3-3.4c-0.4-1.1-0.4-2.3,0.2-3.4
	c0,0,1.1-0.3,3.5,1.3c1.1-0.3,2.1-0.4,3.2-0.4c1.1,0,2.2,0.2,3.2,0.4c2.4-1.7,3.5-1.3,3.5-1.3c0.4,1.1,0.5,2.3,0.2,3.4
	c0.9,0.9,1.3,2.1,1.3,3.4c0,4.9-3,6-5.8,6.3c0.6,0.6,0.9,1.5,0.8,2.4v3.5c0,0.3,0.2,0.8,0.9,0.6c5.2-1.8,8.7-6.6,8.7-12.2
	C-920.3,474.7-926.1,469.1-933.2,469z"/>
</svg>
