<svg version="1.1" class="ico-linkedin" xmlns="http://www.w3.org/2000/svg" xmlns:xlink="http://www.w3.org/1999/xlink" x="0px"
	 y="0px" viewBox="-949 471.7 20.9 19.3" enable-background="new -949 471.7 20.9 19.3" xml:space="preserve">
<rect class="svg__ico" x="-948.5" y="477.9" fill="#FFFFFF" width="4.1" height="13"/>
<path class="svg__ico" fill="#FFFFFF" d="M-933.3,477.9c-2.3,0-3.8,1.3-4.1,2.2v-2h-4.6c0.1,1,0,13,0,13h4.6v-7.1c0-0.4,0-0.7,0.1-1.1
	c0.3-1,1.2-1.6,2.2-1.6c1.6,0,2.3,1.2,2.3,2.9v6.7h4.7v-7.2C-928.1,479.7-930.4,477.9-933.3,477.9z"/>
<path class="svg__ico" fill="#FFFFFF" d="M-946.3,471.7c-0.1,0-0.1,0-0.2,0c-1.3-0.1-2.4,0.9-2.5,2.1c0,0,0,0.1,0,0.1c0,1.2,1,2.3,2.2,2.3
	c0.1,0,0.1,0,0.2,0c1.2,0.1,2.4-0.8,2.5-2c0-0.1,0-0.2,0-0.2C-944.1,472.8-945.1,471.8-946.3,471.7z"/>
</svg>
