<svg version="1.1" class="ico-medium" xmlns="http://www.w3.org/2000/svg" xmlns:xlink="http://www.w3.org/1999/xlink" x="0px" y="0px"
	 viewBox="-947 469 25 25" enable-background="new -947 469 25 25" xml:space="preserve">
<path class="svg__ico" fill="#FFFFFF" d="M-934.5,469c-6.9,0-12.5,5.6-12.5,12.5c0,6.9,5.6,12.5,12.5,12.5c6.9,0,12.5-5.6,12.5-12.5c0,0,0,0,0,0
	C-922,474.6-927.6,469-934.5,469z M-927.4,477.3L-927.4,477.3h-0.6c-0.3,0-0.5,0.2-0.5,0.5v7.1c0.1,0.2,0.3,0.4,0.5,0.5h0.6v1.7
	h-5.2v-1.7h1.1v-7.4h-0.1l-2.5,9.1h-2l-2.5-9.1h-0.1v7.4h1.1v1.7h-4.3v-1.7h0.6c0.3,0,0.5-0.2,0.5-0.5v-7.1
	c-0.1-0.3-0.3-0.5-0.5-0.5h-0.6v-1.7h5.4l1.8,6.6h0l1.8-6.6h5.4V477.3z"/>
</svg>
