<svg version="1.1" class="ico-slideshare" xmlns="http://www.w3.org/2000/svg" xmlns:xlink="http://www.w3.org/1999/xlink" x="0px"
	 y="0px" viewBox="-944 470.1 30.9 20.9" enable-background="new -944 470.1 30.9 20.9" xml:space="preserve">
<path class="svg__ico" fill="#FFFFFF" d="M-923.9,476.9c1.9,0,3.4-1.5,3.4-3.4c0,0,0-0.1,0-0.1c0-1.9-1.5-3.4-3.4-3.4c-1.9,0-3.4,1.5-3.4,3.4
	c0,0,0,0,0,0C-927.3,475.4-925.8,476.9-923.9,476.9z"/>
<path class="svg__ico" fill="#FFFFFF" d="M-932.9,476.9C-932.9,476.9-932.8,476.9-932.9,476.9c1.9,0,3.5-1.5,3.5-3.4c0,0,0-0.1,0-0.1
	c0-1.9-1.5-3.4-3.4-3.4c-1.9,0-3.4,1.5-3.4,3.4c0,0,0,0,0,0C-936.3,475.4-934.8,476.9-932.9,476.9z"/>
<path class="svg__ico" fill="#FFFFFF" d="M-914.6,475.8c-1,1.2-5.4,2.6-6,2.6h-4.8c-1.1,0-2.9,0.3-2.9,1v0.6c-0.1,0-0.1-0.1-0.2-0.1
	c-0.7-0.9-1.9-1.3-3-1.3c-2.3,0-4.5-0.2-6.8-0.7c-2-0.4-5.3-3.3-5.6-2.5c-0.3,0.8,0.3,1.3,1.3,2.5c1.1,1.3,5.5,3,5.5,3v5.3
	c0,1.6,3.2,3.9,4.8,3.9s2.9-1.1,2.9-1.9v-4.9c0.3,0.1,0.7,0.3,1,0.3v4.5c0,0.8,1.1,2.8,4.5,2.8c3.3,0,4.3-4,4.3-4.7v-4.9
	c2.3-1.3,4.8-1.9,6-4.2C-912.5,475.1-913.5,474.7-914.6,475.8z"/>
</svg>
