<svg version="1.1" class="ico-twitter" xmlns="http://www.w3.org/2000/svg" xmlns:xlink="http://www.w3.org/1999/xlink" x="0px"
	 y="0px" viewBox="-947 470.9 24.2 20.1" enable-background="new -947 470.9 24.2 20.1" xml:space="preserve">
<path class="svg__ico" fill="#FFFFFF" d="M-923.4,471.2c-1,0.6-2.1,1-3.2,1.2c-0.9-1-2.3-1.6-3.6-1.6c-2.8,0-5,2.2-5,5c0,0,0,0,0,0.1
	c0,0.4,0.1,0.8,0.2,1.2c-4-0.2-7.8-2.1-10.3-5.2c-1.3,2.3-0.6,5.3,1.6,6.8c-0.8,0-1.6-0.2-2.2-0.7v0.1c0,2.4,1.7,4.5,4.1,5
	c-0.4,0.1-0.9,0.2-1.3,0.2c-0.3,0-0.6,0-0.9-0.1c0.6,2.1,2.6,3.5,4.7,3.5c-1.8,1.4-4,2.1-6.2,2.2c-0.4,0-0.8,0-1.2-0.1
	c2.3,1.5,5,2.2,7.7,2.2c9.3,0,14.3-7.7,14.3-14.4V476c0.8-0.8,1.6-1.8,2.2-2.7c-0.9,0.4-1.9,0.7-2.9,0.8
	C-924.6,473.4-923.8,472.4-923.4,471.2z"/>
</svg>
