<svg version="1.1" class="ico-yt" xmlns="http://www.w3.org/2000/svg" xmlns:xlink="http://www.w3.org/1999/xlink" x="0px" y="0px"
	 viewBox="-948.5 471.7 23.5 17.8" enable-background="new -948.5 471.7 23.5 17.8" xml:space="preserve">
<path class="svg__ico" fill="#FFFFFF" d="M-926.6,473.5c-0.6-0.6-1.4-1-2.3-1c-3.2-0.3-7.8-0.3-7.8-0.3s-4.8,0-7.8,0.3
	c-0.9,0-1.7,0.4-2.3,1c-0.5,0.7-0.8,1.5-0.9,2.4c-0.2,1.3-0.2,2.5-0.3,3.8v1.9c0,1.3,0.1,2.6,0.3,3.8c0.1,0.8,0.4,1.6,0.9,2.3
	c0.7,0.6,1.6,1,2.5,1c1.8,0.2,7.7,0.2,7.7,0.2s4.8,0,7.8-0.2c0.9,0,1.7-0.4,2.3-1c0.5-0.7,0.8-1.5,0.9-2.4c0,0,0.2-1.8,0.2-3.7v-1.8
	c0-1.3-0.1-2.6-0.3-3.9C-925.8,475-926.1,474.2-926.6,473.5z M-939.5,484.8v-8.4l7,4.2L-939.5,484.8z"/>
</svg>
