<svg xmlns="http://www.w3.org/2000/svg" viewBox="-1502.1 847 80.3 48">
  <path fill="#252F3E" d="M-1479.5 864.4c0 1 .1 1.8.3 2.4.2.6.5 1.2.9 1.9.1.2.2.4.2.6 0 .3-.2.5-.5.8l-1.7 1.1c-.2.2-.5.2-.7.2-.3 0-.5-.1-.8-.4-.4-.4-.7-.8-1-1.3-.3-.5-.5-1-.8-1.6-2.1 2.5-4.7 3.7-7.8 3.7-2.2 0-4-.6-5.3-1.9s-2-3-2-5.1c0-2.3.8-4.1 2.4-5.5 1.6-1.4 3.8-2.1 6.5-2.1.9 0 1.8.1 2.8.2s2 .3 3.1.6v-1.9c0-2-.4-3.4-1.3-4.3-.9-.8-2.3-1.2-4.4-1.2-.9 0-1.9.1-2.9.3-1 .2-1.9.5-2.9.9-.4.2-.7.3-.9.3s-.3.1-.4.1c-.4 0-.6-.3-.6-.8v-1.3c0-.4.1-.7.2-.9.1-.2.4-.4.7-.6.9-.5 2.1-.9 3.4-1.2 1.3-.3 2.7-.5 4.2-.5 3.2 0 5.5.7 7 2.2 1.5 1.4 2.2 3.6 2.2 6.6l.1 8.7zm-10.8 4.1c.9 0 1.8-.2 2.7-.5s1.8-.9 2.5-1.7c.4-.5.7-1.1.9-1.7.2-.6.3-1.4.3-2.3v-1.1c-.8-.2-1.6-.3-2.5-.5-.9-.1-1.7-.2-2.5-.2-1.8 0-3.1.3-4 1.1s-1.3 1.7-1.3 3.1c0 1.3.3 2.2 1 2.8.7.7 1.6 1 2.9 1zm21.4 2.9c-.5 0-.8-.1-1-.3-.2-.2-.4-.5-.6-1l-6.3-20.6c-.2-.5-.2-.9-.2-1.1 0-.4.2-.7.6-.7h2.6c.5 0 .9.1 1 .3.2.2.4.5.5 1l4.5 17.7 4.2-17.7c.1-.5.3-.9.5-1 .2-.2.6-.3 1.1-.3h2.1c.5 0 .9.1 1.1.3.2.2.4.5.5 1l4.2 17.9 4.6-17.9c.2-.5.3-.9.5-1 .2-.2.6-.3 1-.3h2.5c.4 0 .7.2.7.7 0 .1 0 .3-.1.4 0 .2-.1.4-.2.7l-6.4 20.6c-.2.5-.3.9-.6 1-.2.2-.6.3-1 .3h-2.3c-.5 0-.9-.1-1.1-.3-.2-.2-.4-.5-.5-1.1l-4.1-17.2-4.1 17.2c-.1.5-.3.9-.5 1.1-.2.2-.6.3-1.1.3h-2.1zm34.3.7c-1.4 0-2.8-.2-4.1-.5-1.3-.3-2.4-.7-3.1-1.1-.4-.2-.7-.5-.8-.7-.1-.2-.2-.5-.2-.7v-1.4c0-.6.2-.8.6-.8.2 0 .3 0 .5.1s.4.2.7.3c.9.4 1.9.7 2.9.9 1.1.2 2.1.3 3.2.3 1.7 0 3-.3 3.9-.9s1.4-1.4 1.4-2.5c0-.7-.2-1.4-.7-1.9-.5-.5-1.4-1-2.7-1.4l-3.9-1.2c-1.9-.6-3.4-1.5-4.3-2.7-.9-1.2-1.3-2.5-1.3-3.9 0-1.1.2-2.1.7-3 .5-.9 1.1-1.6 1.9-2.2.8-.6 1.7-1.1 2.8-1.4 1.1-.3 2.2-.5 3.4-.5.6 0 1.2 0 1.8.1.6.1 1.2.2 1.7.3.5.1 1 .3 1.5.4.5.2.9.3 1.1.5.4.2.6.4.8.7.2.2.2.5.2.9v1.3c0 .6-.2.9-.6.9-.2 0-.6-.1-1-.3-1.5-.7-3.2-1-5.1-1-1.5 0-2.7.2-3.6.7-.8.5-1.3 1.3-1.3 2.4 0 .7.3 1.4.8 1.9s1.5 1 2.9 1.5l3.8 1.2c1.9.6 3.3 1.5 4.1 2.6.8 1.1 1.2 2.3 1.2 3.7 0 1.1-.2 2.2-.7 3.1-.5.9-1.1 1.7-1.9 2.3-.8.7-1.8 1.1-3 1.5-1 .3-2.2.5-3.6.5z"/>
  <g fill="#F90">
    <path d="M-1429.6 885.1c-8.8 6.5-21.5 9.9-32.5 9.9-15.4 0-29.2-5.7-39.7-15.1-.8-.7-.1-1.8.9-1.2 11.3 6.6 25.3 10.5 39.7 10.5 9.7 0 20.4-2 30.3-6.2 1.5-.6 2.8 1 1.3 2.1z"/>
    <path d="M-1425.9 880.9c-1.1-1.4-7.4-.7-10.3-.3-.9.1-1-.6-.2-1.2 5-3.5 13.3-2.5 14.2-1.3 1 1.2-.3 9.5-5 13.4-.7.6-1.4.3-1.1-.5 1.1-2.7 3.5-8.7 2.4-10.1z"/>
  </g>
</svg>
