<svg xmlns="http://www.w3.org/2000/svg" viewBox="-814.4 457 150.8 48">
  <g fill="#FF931E">
    <path d="M-814.4 488.9v6.9c0 .2.1.4.2.6.1.2.3.4.5.5.2.1.4.2.6.2h34.5c.2 0 .4-.1.6-.2.2-.1.4-.3.5-.5.1-.2.2-.4.2-.6v-6.9c-6.2 1.7-11.7 2.5-18.2 2.5h-.5c-6.7-.1-12.1-.8-18.4-2.5z"/>
    <path d="M-778.7 465h-34.5c-.2 0-.4.1-.6.2-.2.1-.3.3-.5.5-.1.2-.2.4-.2.6v20.3c6.3 1.8 11.8 2.6 18.3 2.6h.2c6.5 0 12.1-.8 18.3-2.6v-20.3c0-.2-.1-.4-.2-.6-.1-.2-.3-.3-.5-.5.1-.2-.1-.2-.3-.2zm7.9 7.8c0-.2 0-.3.1-.4.1-.2.2-.3.3-.3.2-.1.3-.1.4-.1.2 0 .3 0 .5.1l.3.3c.1.1.1.3.1.4v13.1h5.6c.1 0 .3 0 .4.1l.3.3c.1.1.1.3.1.4 0 .2 0 .3-.1.4l-.3.3c-.1.1-.3.1-.4.1h-6.5c-.1 0-.3-.1-.4-.1l-.3-.3c-.1-.1-.1-.3-.1-.4v-13.9zm11.4-.3c0-.6.5-.9 1-.9.6 0 1 .4 1 .9v.3c0 .5-.4.9-1 .9s-1-.4-1-.9v-.3zm.1 4.4c0-.2.1-.3.1-.4l.3-.3c.2-.1.3-.1.4-.1s.3 0 .4.1l.3.3c.1.1.1.3.1.4v10c0 .2-.1.3-.1.4l-.3.3c-.1.1-.3.1-.4.1-.2 0-.3-.1-.4-.1l-.3-.3c-.1-.1-.1-.3-.1-.4v-10zm6.3 12.9c-.2-.1-.3-.2-.3-.3-.1-.1-.1-.2-.1-.4 0-.1 0-.2.1-.4l.3-.3c.1-.1.2-.1.4-.1.1 0 .3 0 .4.1.2.1.3.2.4.3 1.2.7 2.3 1 3.6 1 2.5 0 4.2-1.4 4.2-4.1v-1.4c-1 1.3-2.4 2.4-4.5 2.4-2.7 0-5.4-2.1-5.4-5.4v-.1c0-3.3 2.7-5.4 5.4-5.4 2.1 0 3.5 1.1 4.5 2.3v-1.3c0-.2.1-.3.1-.4.1-.2.2-.2.3-.3.1-.1.3-.1.4-.1.2 0 .3 0 .4.1.2.1.2.2.3.3.1.1.1.3.1.4v8.7c0 1.8-.5 3.1-1.4 4.1-1 1-2.6 1.5-4.4 1.5h-.1c-1.6 0-3-.4-4.5-1.2 0 .1-.1 0-.2 0zm9-8.5c0-2.4-2-3.9-4.2-3.9s-4 1.5-4 3.9v.1c0 2.3 1.8 3.9 4 3.9 2.2-.2 4.2-1.7 4.2-4zm5.6-9.2c0-.2 0-.3.1-.4l.3-.3c.2-.1.3-.1.4-.1.2 0 .3.1.4.1l.3.3c.1.1.1.3.1.4v6c.8-1.2 2-2.2 3.9-2.2 2.8 0 4.4 1.9 4.4 4.6v6.4c0 .2 0 .3-.1.4-.1.2-.2.3-.3.3-.1.1-.3.1-.4.1-.2 0-.3 0-.4-.1l-.3-.3c-.1-.1-.1-.3-.1-.4V481c0-2.1-1.1-3.5-3.2-3.5-2 0-3.4 1.4-3.4 3.6v5.8c0 .2-.1.3-.1.4-.1.2-.2.2-.3.3-.1.1-.3.1-.4.1-.1 0-.3 0-.4-.1-.1-.1-.3-.2-.3-.3-.1-.1-.1-.3-.1-.4v-14.8h-.1zm14 12.4v-6.9h-.9c-.2 0-.3-.1-.4-.1l-.3-.3c-.1-.1-.1-.2-.1-.4 0-.1 0-.3.1-.4l.3-.3c.1-.1.2-.1.4-.1h.9v-2.7c0-.2.1-.3.1-.4l.3-.3c.1-.1.3-.1.4-.1.2 0 .3 0 .4.1.2.1.2.2.3.3.1.1.1.3.1.4v2.7h3c.2 0 .3 0 .4.1l.3.3c.1.1.1.2.1.4 0 .1 0 .3-.1.4l-.3.3c-.1.1-.3.1-.4.1h-3v6.7c0 1.4.8 1.9 1.9 1.9.6 0 .9-.2 1-.2.2 0 .3 0 .4.1l.3.3c.1.1.1.2.1.4 0 .1 0 .2-.1.3-.1.1-.1.2-.3.3-.1 0-.1.1-.1.1-.5.2-1 .3-1.6.3h-.1c-1.7-.1-3.1-1-3.1-3.3zm9.1-12.4c0-.2 0-.3.1-.4l.3-.3c.2-.1.3-.1.4-.1s.3.1.4.1.2.2.3.3c.1.1.1.3.1.4v6.3c.9-1.4 2.3-2.5 4.4-2.5 2.7 0 5.5 2.2 5.5 5.9 0 3.8-2.7 6-5.5 6-2.1 0-3.5-1.1-4.4-2.4v1.5c0 .1 0 .3-.1.4-.1.2-.2.2-.3.3-.1.1-.3.1-.4.1-.2 0-.3 0-.4-.1-.1-.1-.3-.2-.3-.3-.1-.1-.1-.3-.1-.4v-14.8zm9.8 9.7c0-2.7-1.9-4.5-4-4.5s-4.1 1.8-4.1 4.4v.1c0 2.7 2 4.4 4.1 4.4 2.2.1 4-1.6 4-4.4zm9.7 6c-3.1 0-5.7-2.4-5.7-6 0-3.3 2.3-6 5.5-6 3.4 0 5.3 2.8 5.3 5.8 0 .2 0 .3-.1.4l-.3.3c-.1.1-.3.1-.4.1h-8.3c.3 2.5 2 3.9 4 3.9 1.4 0 2.5-.6 3.3-1.3l.1-.1c.1-.1.2-.1.4-.1s.3.1.4.1l.3.3c.1.1.1.2.1.4 0 .1 0 .3-.1.4 0 .1-.1.1-.2.2-1.1.9-2.3 1.6-4.3 1.6zm3.4-6.6c-.2-2.1-1.4-3.9-3.7-3.9-2 0-3.5 1.6-3.7 3.9h7.4zm4.5-4.3c0-.2 0-.3.1-.4l.3-.3c.1-.1.3-.1.4-.1.2 0 .3 0 .4.1.2.1.2.2.3.3.1.1.1.3.1.4v1.3c.8-1.2 2-2.2 3.9-2.2 2.8 0 4.4 1.9 4.4 4.6v6.4c0 .2 0 .3-.1.4l-.3.3c-.2.1-.3.1-.4.1-.2 0-.3 0-.4-.1l-.3-.3c-.1-.2-.1-.3-.1-.4v-5.9c0-2.1-1.1-3.5-3.2-3.5-2 0-3.4 1.4-3.4 3.6v5.8c0 .2 0 .3-.1.4-.1.2-.2.2-.3.3-.2.1-.3.1-.4.1-.1 0-.3 0-.4-.1-.1-.1-.3-.2-.3-.3-.1-.1-.1-.3-.1-.4v-10.1h-.1zm24.3 9.9c0 .2 0 .3-.1.4l-.3.3c-.2.1-.3.1-.4.1-.2 0-.3 0-.4-.1-.2-.1-.3-.2-.3-.3-.1-.1-.1-.3-.1-.4v-1.5c-.9 1.4-2.3 2.5-4.4 2.5-2.7 0-5.5-2.2-5.5-5.9 0-3.8 2.7-6 5.5-6 2.1 0 3.5 1.1 4.4 2.4v-6.2c0-.2 0-.3.1-.4l.3-.3c.2-.1.3-.1.4-.1.2 0 .3 0 .4.1.2.1.3.2.3.3.1.1.1.3.1.4v14.7zm-9.8-5c0 2.7 1.9 4.5 4 4.5s4.2-1.8 4.2-4.4c0-2.6-2-4.4-4.2-4.4-2.2-.1-4 1.5-4 4.3z"/>
  </g>
</svg>
