<svg xmlns="http://www.w3.org/2000/svg" viewBox="955.9 465.7 168.5 48">
  <linearGradient id="a" gradientUnits="userSpaceOnUse" x1="468.353" y1="1701.699" x2="453.551" y2="1701.801" gradientTransform="matrix(-.9771 -.323 -.2901 .8773 1910.459 -852.052)">
    <stop offset=".231" stop-color="#999875"/>
    <stop offset=".563" stop-color="#9B9977"/>
    <stop offset=".683" stop-color="#A09F7E"/>
    <stop offset=".768" stop-color="#A9A889"/>
    <stop offset=".837" stop-color="#B7B69A"/>
    <stop offset=".896" stop-color="#C9C7B0"/>
    <stop offset=".948" stop-color="#DEDDCB"/>
    <stop offset=".994" stop-color="#F8F6EB"/>
    <stop offset="1" stop-color="#FBF9EF"/>
  </linearGradient>
  <path fill="url(#a)" d="M967.5 512.5l-1.3-.4s.2-6.4-2.1-6.8c-1.5-1.8.2-74.8 5.7-.3 0 0-1.9.9-2.2 2.5-.4 1.7-.1 5-.1 5z"/>
  <linearGradient id="b" gradientUnits="userSpaceOnUse" x1="470.63" y1="1675.789" x2="449.34" y2="1712.664" gradientTransform="matrix(-.9771 -.323 -.2901 .8773 1910.459 -852.052)">
    <stop offset="0" stop-color="#48A547"/>
    <stop offset="1" stop-color="#3F9143"/>
  </linearGradient>
  <path fill="url(#b)" d="M968.2 506.4s10.9-7.2 8.4-22.1c-2.5-10.8-8.3-14.4-8.9-15.8-.7-1-1.4-2.7-1.4-2.7l.5 30.2c-.1 0-1.1 9.2 1.4 10.4z"/>
  <linearGradient id="c" gradientUnits="userSpaceOnUse" x1="472.583" y1="1702.305" x2="457.493" y2="1692.17" gradientTransform="matrix(-.9771 -.323 -.2901 .8773 1910.459 -852.052)">
    <stop offset="0" stop-color="#41A247"/>
    <stop offset=".352" stop-color="#4BA74B"/>
    <stop offset=".956" stop-color="#67B554"/>
    <stop offset="1" stop-color="#69B655"/>
  </linearGradient>
  <path fill="url(#c)" d="M965.6 506.8s-10.2-7-9.6-19.3c.6-12.3 7.8-18.4 9.2-19.5.9-1 .9-1.3 1-2.3.6 1.4.5 20.5.6 22.7.2 8.7-.5 16.7-1.2 18.4z"/>
  <path fill="#C0BFBE" d="M1082.3 483.9c.6 0 2.8.1 3.8.1 1.9 0 3.3-.1 6.9-.1 3 0 5.6.8 7.4 2.4 2.2 1.9 3.4 4.6 3.4 7.8 0 4.6-2.1 7.3-4.2 8.7-2.1 1.6-4.8 2.4-8.7 2.4-2.1 0-5.6-.1-8.6-.1-.1-.3.3-1.3.5-1.4.8-.1 1-.1 1.4-.3.6-.3.8-.6.8-1.7.1-2.1.1-4.6.1-7.5v-7.3c-.1-1.1-.5-1.3-1.4-1.5-.5-.1-1.1-.2-1.9-.3-.2-.1.4-1 .5-1.2zm6.9 18.9c.7.6 2.2.8 3.4.8 1.7 0 3.3-.3 4.9-1.7 1.6-1.5 2.7-3.7 2.7-7.3 0-3.4-1.3-6.2-4-7.9-1.5-1-3.5-1.3-5.7-1.3-.7 0-1.3 0-1.7.2-.1.1-.3.3-.3.5-.1.6-.1 5.3-.1 8 0 2.8 0 6.8.1 7.3.1.4.3 1.1.7 1.4zM1106.8 483.9c.3 0 1.2.1 3.6.1 2.2 0 4-.1 6.1-.1 2.7 0 6.3 1 6.3 4.9 0 1.9-1.4 3.5-3.2 4.3-.1 0-.1.1 0 .1 2.6.6 4.8 2.2 4.8 5.2 0 2.9-1.8 4.8-4.5 5.9-1.6.7-3.6 1-5.6 1-1.6 0-5.7-.2-8-.1-.2-.1.2-1.2.4-1.4.6 0 1-.1 1.6-.2.8-.2.9-.5 1-1.7.1-1.1.1-4.8.1-7.5V487c0-1-.4-1.3-1-1.4-.5-.1-1.4-.2-2.1-.3-.2-.3.3-1.3.5-1.4zm14 15.2c0-3-2.2-4.7-6.2-4.7h-1.8c-.1 0-.2.1-.2.2 0 2.1 0 5.6.1 6.9.1.6.5 1.4 1 1.6.6.3 1.8.4 2.7.4 2.3.1 4.4-1.2 4.4-4.4zm-7.8-13.6c-.1 0-.3.4-.3.5 0 1.2-.1 4.4-.1 6.6 0 .1.1.2.2.2.5 0 1.6.1 2.5.1 1.3 0 2.1-.2 2.5-.4 1.1-.5 1.6-1.7 1.6-3 0-3-2.1-4.1-5.1-4.1-.3.1-.9.1-1.3.1z"/>
  <path fill="#484748" d="M983.5 505.2c-.1-.1-.1-.4-.1-.7 0-.3.1-.4.1-.5.7-.1 1-.2 1.3-.3.6-.1.8-.5.9-1.3.1-1.8.1-5.3.1-7.7v-.1c0-.3 0-.6-.3-.9-.5-.3-1.1-.6-1.8-.8-.3-.1-.5-.2-.4-.4 0-.2.2-.4.6-.5 1-.1 3.6-.7 4.6-1.2.1.1.2.2.1.5v.3c0 .3-.1.7-.1 1.1 0 .1.1.2.3.2.1 0 .1 0 .2-.1 2-1.5 3.7-2.1 4.6-2.1 1.5 0 2.6.7 3.5 2.2.1.1.1.1.2.1s.1 0 .2-.1c1.8-1.4 3.6-2.2 4.8-2.2 2.8 0 4.5 2.1 4.5 5.6v6.2c0 .2.2.6.6.7.4.2 1 .3 1.8.4.1.2-.1 1-.2 1.2h-.8c-.6 0-1.4-.1-2.3-.1-1.9 0-2.9 0-3.8.1-.1-.2-.1-1 0-1.1.5-.1.8-.2 1.1-.3.6-.2.8-.5.8-1.3 0-.6.1-5.5-.1-6.7-.2-1.2-1.1-2.6-3.1-2.6-.7 0-2 .3-3.1 1.2-.1.1-.1.2-.1.3.1.6.1 1.4.1 2.5v5.6c0 .7.4.8.7 1 .2 0 .3.1.5.1.3.1.6.1 1 .2.1.1.1.5 0 .9 0 .2-.1.3-.1.3-1 0-2.1-.1-3.7-.1h-3.3c0-.1-.1-.3-.1-.6s.1-.5.1-.6c.1 0 .3-.1.4-.1.4-.1.7-.1 1-.2.5-.2.7-.4.7-1.1.1-1.5.2-5.9 0-7-.4-1.8-1.4-2.6-3-2.6-.9 0-2.1.5-3.1 1.2-.2.1-.3.4-.3.7V502.4c0 .4.2.8.8 1 .1 0 .4.1.7.1.2 0 .4.1.6.1.1.2 0 .9-.1 1.2h-1.1c-.6 0-1.4-.1-2.4-.1-1.1 0-1.8 0-2.4.1-.4.4-.8.4-1.1.4zM1018.2 505.5c-5.2 0-7-3.8-7-7.3 0-2.5 1-4.4 3-5.8 1.4-.9 3.1-1.4 4.7-1.4 3.9 0 6.7 2.8 6.7 6.9 0 2.8-1.1 4.9-3.2 6.3-1 .7-2.7 1.3-4.2 1.3zm-.5-13c-.6 0-1.2.2-1.6.5-1.2.7-1.8 2.2-1.8 4.3 0 4 2 6.8 4.9 6.8.8 0 1.5-.2 2.1-.7.9-.7 1.3-2.2 1.3-4.2-.1-4.1-2-6.7-4.9-6.7zM1071.8 505.5c-5.2 0-7-3.8-7-7.3 0-2.5 1-4.4 3-5.8 1.4-.9 3.1-1.4 4.7-1.4 3.9 0 6.7 2.8 6.7 6.9 0 2.8-1.1 4.9-3.2 6.3-1 .7-2.7 1.3-4.2 1.3zm-.5-13c-.6 0-1.2.2-1.6.5-1.2.7-1.8 2.2-1.8 4.3 0 4 2 6.8 4.9 6.8.8 0 1.5-.2 2.1-.7.9-.7 1.3-2.2 1.3-4.2 0-4.1-2-6.7-4.9-6.7zM1054 513.7c-1.9 0-3.2-.4-4.3-1.3-1.1-.9-1.6-2.1-1.6-3 0-.3.1-.9.6-1.5.3-.4 1.1-1.1 2.8-2.2.1 0 .1-.1.1-.1 0-.1 0-.1-.1-.1-1.4-.5-1.9-1.4-2-1.9v-.1c0-.2-.1-.4.2-.6.2-.1.5-.3.9-.5.5-.3 1.1-.6 1.4-.9.1-.1.1-.1.1-.2s-.1-.1-.1-.2c-2.1-.7-3.2-2.3-3.2-4.7 0-1.5.7-2.9 2-3.8.9-.7 3-1.5 4.4-1.5h.1c1.4 0 2.2.3 3.3.7.6.2 1.2.3 2 .3 1.2 0 1.7-.4 2.1-.8 0 .1.1.2.1.6 0 .4-.1 1-.4 1.4-.2.3-.8.6-1.3.6h-.2c-.5-.1-.8-.1-.8-.1h-.1V494.1c.1.3.2 1.1.2 1.3 0 2.5-1 3.6-2.1 4.4-1 .8-2.2 1.2-3.6 1.4h-.8c-.2.1-.8.4-.8.9 0 .4.3 1 1.6 1.1.3 0 .5 0 .9.1 1.7.1 3.9.3 4.9.6 1.4.5 2.3 1.8 2.3 3.3 0 2.2-1.6 4.4-4.3 5.6-1.6.6-2.9.9-4.3.9zm-.3-7.9c-.6 0-1 .2-1.3.3-1.3.8-1.8 1.6-1.8 2.6 0 .9.3 1.6 1.1 2.2.9.8 2.1 1.1 3.7 1.1 3.1 0 4.5-1.7 4.5-3.3 0-1.1-.6-1.9-1.8-2.4-1-.3-2.5-.5-4.4-.5zm.3-13.4c-1.6 0-2.6 1.3-2.6 3.2 0 2 .9 4.3 3.4 4.3.4 0 1.2-.2 1.6-.6.6-.5 1-1.6 1-2.8-.1-2.6-1.4-4.1-3.4-4.1zM1045.5 504c-.8-.1-1.3-.2-2-.5-.1-.1-.2-.4-.2-.5-.1-1.1-.1-4.1-.1-6.1 0-1.6-.3-3.1-1-4.1-.8-1.2-2-1.8-3.5-1.8-1.3 0-3.1.9-4.6 2.2 0 0-.3.3-.3-.1 0-.3.1-1 .1-1.4 0-.4-.2-.6-.2-.6-1 .5-3.7 1.1-4.7 1.2-.7.1-.9.8-.1 1.1.8.2 1.4.5 1.8.8.3.2.3.6.3.9 0 2.3 0 5.8-.1 7.7 0 .7-.2 1-.8 1.2h.1c-.4.1-.8.2-1.3.2-.2.2-.2 1.2 0 1.4.3 0 2.1-.1 3.5-.1 2 0 3 .1 3.5.1.2-.2.3-1.2.1-1.4-.6 0-1-.1-1.4-.2-.6-.1-.7-.4-.7-1-.1-1.6-.1-5-.1-7.3 0-.7.2-1 .4-1.1.7-.6 1.8-1 2.8-1 1 0 1.6.3 2.1.7.7.5.9 1.3 1 1.9.1 1.3.1 3.9.1 6.1 0 1.2-.1 1.5-.6 1.7-.2.1-.8.2-1.4.3-.2.2-.1 1.2 0 1.4.9 0 1.9-.1 3.4-.1 1.9 0 3.1.1 3.6.1.4-.6.5-1.5.3-1.7z"/>
</svg>
